<?xml version="1.0" standalone="no"?>
<!DOCTYPE svg PUBLIC "-//W3C//DTD SVG 20010904//EN"
 "http://www.w3.org/TR/2001/REC-SVG-20010904/DTD/svg10.dtd">
<svg version="1.0" xmlns="http://www.w3.org/2000/svg"
 width="1024.000000pt" height="1024.000000pt" viewBox="0 0 1024.000000 1024.000000"
 preserveAspectRatio="xMidYMid meet">

<g transform="translate(0.000000,1024.000000) scale(0.100000,-0.100000)"
fill="#0056a3" stroke="none">
<path d="M1141 6924 c-186 -50 -343 -209 -391 -398 -19 -77 -20 -109 -20
-1246 0 -1130 1 -1169 20 -1244 11 -43 32 -101 47 -129 41 -78 165 -197 243
-235 139 -67 -215 -62 4080 -62 4295 0 3941 -5 4080 62 88 42 205 160 248 248
65 132 63 89 60 1393 l-3 1182 -26 66 c-14 37 -38 88 -54 115 -40 68 -139 163
-211 201 -129 69 231 63 -4099 62 -3390 0 -3927 -2 -3974 -15z m778 -816 c29
-7 55 -18 58 -25 6 -16 -17 -183 -26 -183 -3 0 -31 9 -61 21 -134 51 -221 -27
-208 -186 l3 -40 113 -3 112 -3 0 -84 0 -85 -115 0 -115 0 0 -294 c0 -223 3
-296 13 -304 6 -5 33 -13 60 -16 l47 -7 0 -85 0 -84 -233 0 c-129 0 -236 2
-238 4 -2 2 -3 40 -1 84 l3 81 32 6 c74 15 67 -16 67 316 l0 299 -70 0 -70 0
0 85 0 84 68 3 67 3 6 105 c4 87 10 114 32 156 74 144 235 198 456 152z m5421
-598 l5 -595 53 -8 c49 -8 53 -11 48 -30 -3 -12 -6 -50 -6 -85 l0 -62 -222 2
-223 3 -3 82 -3 81 43 7 c24 4 49 12 56 17 18 15 18 966 -1 992 -7 9 -32 20
-55 23 l-42 6 0 84 0 83 173 -2 172 -3 5 -595z m550 0 l5 -595 48 -9 48 -8 -3
-82 -3 -81 -228 -3 -228 -2 3 82 c3 89 0 84 81 102 l27 6 -2 503 -3 502 -50
10 -50 11 -3 69 c-2 37 -1 74 2 82 5 11 39 13 178 11 l173 -3 5 -595z m-3601
298 l-2 -113 127 0 126 0 0 -87 0 -88 -127 0 -128 0 5 -276 5 -276 29 -25 c27
-23 36 -25 95 -21 36 3 74 8 83 12 21 10 28 -13 31 -108 l2 -69 -55 -19 c-130
-46 -281 -32 -356 35 -82 72 -94 129 -94 470 l0 277 -60 0 -60 0 0 90 0 90 59
0 c73 0 87 15 120 122 12 40 24 79 26 86 3 8 30 12 90 12 l86 0 -2 -112z
m2163 1 c181 -37 357 -196 420 -376 19 -57 23 -88 23 -188 0 -169 -36 -265
-143 -385 l-50 -56 48 -59 c29 -36 55 -59 69 -60 28 -2 22 5 140 -164 89 -126
101 -149 101 -185 0 -73 -75 -121 -142 -93 -49 20 -242 297 -235 335 4 21 -5
41 -41 89 -25 35 -48 63 -50 63 -3 0 -37 -12 -76 -26 -93 -34 -223 -43 -318
-20 -113 26 -194 72 -278 156 -122 122 -170 238 -170 411 0 109 16 178 62 269
64 125 216 246 359 284 65 18 208 20 281 5z m-3922 -100 c79 -12 169 -51 203
-87 14 -15 36 -49 49 -77 22 -48 23 -62 26 -342 3 -289 3 -291 25 -297 12 -3
37 -6 56 -6 l34 0 -8 -72 c-3 -40 -8 -75 -10 -77 -12 -11 -147 -41 -189 -41
-46 0 -53 3 -96 48 l-46 48 -48 -33 c-63 -44 -133 -63 -226 -63 -141 0 -225
44 -278 144 -24 46 -27 61 -27 152 0 93 2 104 27 142 57 86 176 122 404 122
l137 0 -5 88 c-3 49 -11 98 -17 111 -22 40 -70 61 -139 61 -97 0 -152 -38
-152 -107 l0 -33 -120 0 c-89 0 -120 3 -120 13 0 23 27 112 44 144 68 133 259
197 476 162z m1093 0 c40 -6 96 -20 126 -31 l54 -21 -7 -96 c-3 -53 -6 -113
-6 -133 l0 -38 -109 0 -108 0 -7 70 -7 70 -57 0 c-80 0 -127 -16 -172 -56 -48
-44 -69 -103 -77 -214 -10 -153 36 -269 127 -318 40 -21 55 -23 130 -20 79 4
117 15 225 64 6 2 23 -33 39 -78 16 -46 31 -88 33 -94 5 -14 -109 -69 -184
-88 -87 -23 -254 -21 -332 3 -163 51 -250 152 -287 332 -19 95 -15 208 11 310
68 262 292 387 608 338z m4807 -96 c0 -75 -2 -83 -19 -83 -11 0 -22 -4 -25 -9
-6 -9 155 -491 164 -491 7 0 151 461 150 482 0 12 -10 18 -37 20 l-38 3 0 78
0 78 190 0 190 0 3 -80 c3 -79 2 -81 -21 -81 -51 0 -46 11 -253 -600 -111
-327 -172 -458 -248 -527 -35 -32 -75 -58 -106 -68 -55 -18 -183 -22 -235 -7
l-30 8 -3 92 -3 92 78 0 c83 1 141 16 175 47 30 27 71 113 65 137 -3 12 -37
98 -75 191 -38 94 -104 269 -147 390 -43 121 -85 226 -94 233 -8 6 -27 12 -43
12 l-28 0 0 83 0 82 195 0 195 0 0 -82z m-3428 -265 c3 -298 5 -347 20 -374
44 -80 181 -71 276 19 l32 31 0 247 0 247 -45 6 -45 7 0 80 0 79 175 0 175 0
0 -385 0 -385 23 -5 c12 -2 33 -6 47 -7 24 -3 25 -6 28 -85 l3 -81 -98 -6
c-54 -4 -123 -9 -155 -12 -62 -6 -56 -12 -78 74 l-11 43 -37 -32 c-20 -18 -66
-46 -102 -63 -60 -28 -74 -31 -170 -31 -89 0 -111 3 -145 22 -54 29 -99 78
-127 138 -22 48 -23 64 -28 345 l-5 295 -47 9 -48 8 0 79 0 79 180 0 179 0 3
-342z"/>
<path d="M6255 5663 c-139 -18 -267 -116 -317 -242 -19 -46 -23 -75 -23 -171
0 -109 2 -118 32 -183 40 -83 118 -163 200 -204 54 -26 66 -28 178 -28 108 0
125 3 175 26 257 121 321 468 124 679 -88 94 -230 142 -369 123z m335 -258
c31 -16 46 -47 33 -68 -22 -35 -362 -357 -378 -357 -10 0 -57 39 -106 87 -91
88 -107 121 -77 151 27 27 68 13 127 -42 l57 -55 154 149 c85 82 156 149 158
150 2 0 16 -7 32 -15z"/>
<path d="M2336 5115 c-64 -17 -86 -45 -85 -110 0 -78 31 -105 122 -105 64 0
110 14 155 47 31 24 32 25 32 104 l0 79 -87 -1 c-49 0 -110 -6 -137 -14z"/>
</g>
</svg>
